<?xml version="1.0"?>
<svg xmlns="http://www.w3.org/2000/svg" xmlns:xlink="http://www.w3.org/1999/xlink" xmlns:svgjs="http://svgjs.com/svgjs" version="1.1" width="512" height="512" x="0" y="0" viewBox="0 0 512 512" style="enable-background:new 0 0 512 512" xml:space="preserve" class=""><g><g xmlns="http://www.w3.org/2000/svg"><path d="m140.5 126c-9.636 0-17.121 3.859-22.5 8.64-5.379-4.78-12.864-8.64-22.5-8.64-18.225 0-32.5 14.706-32.5 33.48 0 19.676 15.531 32.279 37.026 49.723 3.697 3.001 7.521 6.104 11.572 9.479 3.709 3.09 9.094 3.09 12.803 0 4.051-3.376 7.875-6.479 11.572-9.479 21.496-17.443 37.027-30.047 37.027-49.723 0-18.774-14.275-33.48-32.5-33.48zm-17.129 67.674c-1.757 1.426-3.543 2.875-5.371 4.368-1.828-1.493-3.614-2.942-5.371-4.368-19.47-15.8-29.629-24.496-29.629-34.194 0-6.699 4.294-13.48 12.5-13.48 8.753 0 12.783 7.836 13.338 9.011 1.521 3.713 5.072 6.051 9.089 6.099.038 0 .076.001.114.001 3.987 0 7.555-2.478 9.139-6.145.039-.09 4.131-8.966 13.32-8.966 8.206 0 12.5 6.781 12.5 13.48 0 9.698-10.159 18.394-29.629 34.194z" fill="#ffffff" data-original="#000000" style="" class=""/><path d="m394 134.64c-5.379-4.78-12.864-8.64-22.5-8.64-18.225 0-32.5 14.706-32.5 33.48 0 19.676 15.531 32.279 37.026 49.723 3.697 3.001 7.521 6.104 11.572 9.479 1.854 1.545 4.128 2.317 6.401 2.317s4.547-.772 6.401-2.317c4.051-3.376 7.875-6.479 11.572-9.479 21.497-17.443 37.028-30.047 37.028-49.723 0-18.774-14.275-33.48-32.5-33.48-9.636 0-17.121 3.859-22.5 8.64zm35 24.84c0 9.697-10.159 18.394-29.629 34.193-1.757 1.426-3.543 2.875-5.371 4.368-1.828-1.493-3.614-2.942-5.371-4.368-19.47-15.799-29.629-24.495-29.629-34.193 0-6.699 4.294-13.48 12.5-13.48 8.753 0 12.783 7.836 13.338 9.011 1.521 3.713 5.072 6.051 9.089 6.099.038 0 .076.001.114.001 3.987 0 7.555-2.478 9.139-6.145.039-.09 4.131-8.966 13.32-8.966 8.206 0 12.5 6.781 12.5 13.48z" fill="#ffffff" data-original="#000000" style="" class=""/><circle cx="502" cy="256" r="10" fill="#ffffff" data-original="#000000" style="" class=""/><path d="m507.564 24.49c-23.243-15.563-53.701-24.49-83.564-24.49-.616 0-62.11.54-105.75 47.206-30.825 32.963-44.624 79.898-41.027 139.523l-21.223 56.037-21.223-56.037c3.597-59.625-10.202-106.561-41.027-139.523-43.64-46.666-105.134-47.206-105.75-47.206-29.863 0-60.321 8.927-83.564 24.49-2.772 1.857-4.436 4.974-4.436 8.31v469.2c0 5.522 4.478 10 10 10h156c5.522 0 10-4.478 10-10 0-26.792-16.284-48.271-32.031-69.042-11.954-15.767-23.357-30.807-26.868-46.958h78.899c4.922 0 9.112-3.582 9.878-8.443 1.51-9.581 3.057-19.862 4.834-32.126l22.359-22.359c3.905-3.905 3.905-10.237 0-14.143l-17.512-17.511 40.44-10.11 40.44 10.11-17.512 17.511c-3.905 3.905-3.905 10.237 0 14.143l22.359 22.359c1.777 12.264 3.324 22.545 4.834 32.126.766 4.861 4.956 8.443 9.878 8.433h78.899c-3.511 16.161-14.914 31.201-26.868 46.968-15.745 20.771-32.029 42.25-32.029 69.042 0 5.522 4.478 10 10 10h156c5.522 0 10-4.478 10-10v-200.997c0-5.522-4.478-10-10-10s-10 4.478-10 10v190.997h-134.899c3.511-16.151 14.914-31.191 26.868-46.958 15.747-20.771 32.031-42.25 32.031-69.042 0-5.522-4.478-10-10-10h-81.434c-1.228-8.003-2.514-16.691-3.959-26.717-.308-2.137-1.3-4.117-2.826-5.645l-17.638-17.638 22.929-22.929c2.547-2.548 3.527-6.269 2.565-9.74-.961-3.473-3.716-6.158-7.211-7.032l-49.091-12.273 27.356-72.233c.509-1.343.722-2.779.626-4.212-3.678-54.81 8.225-97.384 35.377-126.538 36.985-39.714 90.779-41.041 91.306-41.043 23.748 0 48.752 6.781 68 18.301v172.699c0 5.522 4.478 10 10 10s10-4.478 10-10v-178.2c0-3.336-1.664-6.453-4.436-8.31zm-313.99 251.809c-3.495.874-6.25 3.56-7.211 7.032-.962 3.472.019 7.192 2.565 9.74l22.929 22.929-17.639 17.639c-1.526 1.527-2.519 3.508-2.826 5.645-1.445 10.025-2.731 18.714-3.959 26.717h-81.433c-5.522 0-10 4.478-10 10 0 26.792 16.284 48.271 32.031 69.042 11.954 15.767 23.357 30.807 26.868 46.958h-134.899v-453.7c19.248-11.52 44.252-18.301 67.994-18.301.533.002 54.327 1.329 91.312 41.042 27.152 29.154 39.055 71.729 35.377 126.538-.096 1.433.117 2.869.626 4.212l27.356 72.233z" fill="#ffffff" data-original="#000000" style="" class=""/></g></g></svg>
